<svg xmlns="http://www.w3.org/2000/svg" xmlns:xlink="http://www.w3.org/1999/xlink" width="2000" zoomAndPan="magnify" viewBox="0 0 1500 1499.999933" height="2000" preserveAspectRatio="xMidYMid meet" version="1.0"><defs><clipPath id="ccc4d04847"><path d="M 345 346 L 1155 346 L 1155 1156.457031 L 345 1156.457031 Z M 345 346 " clip-rule="nonzero"/></clipPath></defs><g clip-path="url(#ccc4d04847)"><path fill="#5a3010" d="M 1142.199219 713.054688 L 1053.636719 626.007812 L 1053.636719 405.871094 C 1053.636719 391.902344 1042.300781 380.566406 1028.332031 380.566406 L 910.25 380.566406 C 896.285156 380.566406 884.949219 391.902344 884.949219 405.871094 L 884.949219 462.144531 L 767.136719 353.542969 C 757.316406 344.46875 742.136719 344.636719 732.484375 353.878906 L 357.625 713.222656 C 349.695312 721.148438 345.140625 732.082031 345.140625 743.25 C 345.140625 766.492188 364.070312 785.421875 387.3125 785.421875 L 446.355469 785.421875 L 446.355469 1105.929688 C 446.355469 1133.867188 469.027344 1156.539062 496.960938 1156.539062 L 640.347656 1156.539062 C 654.316406 1156.539062 665.652344 1145.203125 665.652344 1131.234375 L 665.652344 903.503906 C 665.652344 898.882812 669.429688 895.070312 674.085938 895.070312 L 825.90625 895.070312 C 830.527344 895.070312 834.339844 898.882812 834.339844 903.503906 L 834.339844 1131.234375 C 834.339844 1145.203125 845.675781 1156.539062 859.644531 1156.539062 L 1003.03125 1156.539062 C 1030.964844 1156.539062 1053.636719 1133.867188 1053.636719 1105.929688 L 1053.636719 785.421875 L 1112.679688 785.421875 C 1135.921875 785.421875 1154.851562 766.492188 1154.851562 743.25 C 1154.851562 732.082031 1150.296875 721.148438 1142.199219 713.054688 Z M 1142.199219 713.054688 " fill-opacity="1" fill-rule="nonzero"/></g></svg>